<?xml version="1.0" encoding="UTF-8"?>
<svg id="Layer_1" xmlns="http://www.w3.org/2000/svg" version="1.1" xmlns:xlink="http://www.w3.org/1999/xlink" viewBox="0 0 14400 14400">
  <!-- Generator: Adobe Illustrator 30.1.0, SVG Export Plug-In . SVG Version: 2.1.1 Build 136)  -->
  <defs>
    <style>
      .st0 {
        fill: #aee2fa;
      }

      .st0, .st1, .st2 {
        stroke: #231f20;
        stroke-miterlimit: 10;
        stroke-width: .1px;
      }

      .st1 {
        fill: #fff;
      }

      .st2 {
        fill: #00aeef;
      }

      .st3 {
        fill: url(#linear-gradient);
      }
    </style>
    <linearGradient id="linear-gradient" x1="1744.78" y1="7200" x2="12655.22" y2="7200" gradientTransform="translate(14400) rotate(90)" gradientUnits="userSpaceOnUse">
      <stop offset=".15" stop-color="#93d6e1"/>
      <stop offset=".3" stop-color="#9cc9e6"/>
      <stop offset=".31" stop-color="#9cc8e6"/>
      <stop offset=".47" stop-color="#9dc6ea"/>
      <stop offset=".55" stop-color="#b1aed7"/>
      <stop offset=".68" stop-color="#b6a7d2"/>
      <stop offset=".89" stop-color="#e88fb4"/>
    </linearGradient>
  </defs>
  <g>
    <path class="st1" d="M12702.79,6968.54"/>
    <path class="st2" d="M10526.68,8106.35c-847.85,0-1616.69-338.24-2178.95-887.19,552.04-494.66,1281.36-795.5,2080.96-795.5,847.87,0,1616.71,338.26,2178.97,887.17-552.04,494.68-1281.38,795.52-2080.98,795.52Z"/>
    <path class="st2" d="M3876.15,8106.35c-847.85,0-1616.69-338.24-2178.95-887.19,552.04-494.66,1281.36-795.5,2080.96-795.5,847.87,0,1616.71,338.26,2178.97,887.17-552.04,494.68-1281.38,795.52-2080.98,795.52Z"/>
    <path class="st2" d="M6358.65,10574.24c0-847.85,338.24-1616.69,887.19-2178.95,494.66,552.04,795.5,1281.36,795.5,2080.96,0,847.87-338.26,1616.71-887.17,2178.97-494.68-552.04-795.52-1281.38-795.52-2080.98Z"/>
    <path class="st2" d="M6358.65,3923.72c0-847.85,338.24-1616.69,887.19-2178.95,494.66,552.04,795.5,1281.36,795.5,2080.96,0,847.87-338.26,1616.71-887.17,2178.97-494.68-552.04-795.52-1281.38-795.52-2080.98Z"/>
    <g>
      <path class="st0" d="M4390.65,4303.97c1345.74,19.38,2420.97,1126,2401.59,2471.74-.61,42.71-2.32,85.16-5.12,127.29-24.18.37-48.46.37-72.8.02-1345.74-19.38-2420.94-1126.03-2401.57-2471.74.62-42.71,2.32-85.16,5.12-127.29,24.18-.37,48.44-.38,72.78-.03Z"/>
      <path class="st0" d="M4313.27,10152.69c-33.57-1345.46,1029.91-2463.38,2375.37-2496.95,42.7-1.07,85.18-1.03,127.39.11,1.33,24.14,2.28,48.41,2.89,72.74,33.57,1345.46-1029.94,2463.36-2375.37,2496.92-42.7,1.07-85.18,1.03-127.39-.11-1.33-24.14-2.28-48.38-2.89-72.72Z"/>
    </g>
    <g>
      <path class="st0" d="M7581.08,6801.43c-33.57-1345.46,1029.91-2463.38,2375.37-2496.95,42.7-1.07,85.18-1.03,127.39.11,1.33,24.14,2.28,48.41,2.89,72.74,33.57,1345.46-1029.94,2463.36-2375.37,2496.92-42.7,1.07-85.18,1.03-127.39-.11-1.33-24.14-2.28-48.38-2.89-72.72Z"/>
      <path class="st0" d="M7685.66,7626.98c1345.74,19.38,2420.97,1126,2401.59,2471.74-.61,42.71-2.32,85.16-5.12,127.29-24.18.37-48.46.37-72.8.02-1345.74-19.38-2420.94-1126.03-2401.57-2471.74.62-42.71,2.32-85.16,5.12-127.29,24.18-.37,48.44-.38,72.78-.03Z"/>
    </g>
  </g>
  <g>
    <path class="st3" d="M12702.79,6968.54"/>
    <path class="st3" d="M10526.68,8106.35c-847.85,0-1616.69-338.24-2178.95-887.19,552.04-494.66,1281.36-795.5,2080.96-795.5,847.87,0,1616.71,338.26,2178.97,887.17-552.04,494.68-1281.38,795.52-2080.98,795.52Z"/>
    <path class="st3" d="M3876.15,8106.35c-847.85,0-1616.69-338.24-2178.95-887.19,552.04-494.66,1281.36-795.5,2080.96-795.5,847.87,0,1616.71,338.26,2178.97,887.17-552.04,494.68-1281.38,795.52-2080.98,795.52Z"/>
    <path class="st3" d="M6358.65,10574.24c0-847.85,338.24-1616.69,887.19-2178.95,494.66,552.04,795.5,1281.36,795.5,2080.96,0,847.87-338.26,1616.71-887.17,2178.97-494.68-552.04-795.52-1281.38-795.52-2080.98Z"/>
    <path class="st3" d="M6358.65,3923.72c0-847.85,338.24-1616.69,887.19-2178.95,494.66,552.04,795.5,1281.36,795.5,2080.96,0,847.87-338.26,1616.71-887.17,2178.97-494.68-552.04-795.52-1281.38-795.52-2080.98Z"/>
    <g>
      <path class="st3" d="M4390.65,4303.97c1345.74,19.38,2420.97,1126,2401.59,2471.74-.61,42.71-2.32,85.16-5.12,127.29-24.18.37-48.46.37-72.8.02-1345.74-19.38-2420.94-1126.03-2401.57-2471.74.62-42.71,2.32-85.16,5.12-127.29,24.18-.37,48.44-.38,72.78-.03Z"/>
      <path class="st3" d="M4313.27,10152.69c-33.57-1345.46,1029.91-2463.38,2375.37-2496.95,42.7-1.07,85.18-1.03,127.39.11,1.33,24.14,2.28,48.41,2.89,72.74,33.57,1345.46-1029.94,2463.36-2375.37,2496.92-42.7,1.07-85.18,1.03-127.39-.11-1.33-24.14-2.28-48.38-2.89-72.72Z"/>
    </g>
    <g>
      <path class="st3" d="M7581.08,6801.43c-33.57-1345.46,1029.91-2463.38,2375.37-2496.95,42.7-1.07,85.18-1.03,127.39.11,1.33,24.14,2.28,48.41,2.89,72.74,33.57,1345.46-1029.94,2463.36-2375.37,2496.92-42.7,1.07-85.18,1.03-127.39-.11-1.33-24.14-2.28-48.38-2.89-72.72Z"/>
      <path class="st3" d="M7685.66,7626.98c1345.74,19.38,2420.97,1126,2401.59,2471.74-.61,42.71-2.32,85.16-5.12,127.29-24.18.37-48.46.37-72.8.02-1345.74-19.38-2420.94-1126.03-2401.57-2471.74.62-42.71,2.32-85.16,5.12-127.29,24.18-.37,48.44-.38,72.78-.03Z"/>
    </g>
  </g>
</svg>